<?xml version="1.0" standalone="no"?>
<!DOCTYPE svg PUBLIC "-//W3C//DTD SVG 20010904//EN"
 "http://www.w3.org/TR/2001/REC-SVG-20010904/DTD/svg10.dtd">
<svg version="1.0" xmlns="http://www.w3.org/2000/svg"
 width="973.000000pt" height="861.000000pt" viewBox="0 0 973.000000 861.000000"
 preserveAspectRatio="xMidYMid meet">

<g transform="translate(0.000000,861.000000) scale(0.100000,-0.100000)"
fill="#000000" stroke="none">
<path d="M2710 5361 c-287 -61 -540 -253 -668 -506 -55 -111 -77 -177 -122
-380 -24 -104 -45 -193 -49 -197 -3 -4 -6 24 -6 62 0 54 -4 75 -21 97 -40 53
-54 55 -287 44 -319 -16 -314 -16 -363 -65 -33 -32 -44 -52 -49 -88 -14 -95
18 -174 85 -210 32 -17 57 -18 301 -16 251 3 268 4 289 23 22 20 22 20 19 0
-3 -16 -20 -23 -84 -36 -171 -36 -293 -99 -413 -213 -114 -108 -198 -246 -238
-391 -20 -70 -32 -473 -33 -1130 -1 -370 0 -403 17 -434 19 -35 72 -71 104
-71 15 0 17 -20 20 -207 3 -192 5 -211 25 -249 28 -53 91 -107 142 -122 50
-15 412 -16 466 -1 52 14 139 102 154 156 6 21 11 125 11 231 l0 192 1884 0
1884 0 4 -197 c4 -221 12 -256 79 -322 65 -65 89 -71 324 -71 200 0 212 1 261
24 28 13 65 41 82 62 52 63 62 114 62 319 l0 181 44 12 c52 14 100 64 116 122
8 29 10 263 8 773 -4 826 -1 782 -85 954 -78 161 -219 291 -388 360 l-80 33
173 0 c194 0 219 6 269 63 53 60 54 175 2 241 -42 54 -63 58 -367 74 -372 19
-363 22 -372 -153 l-5 -100 -34 200 c-40 234 -60 312 -106 411 -112 244 -317
420 -582 501 l-88 27 -665 7 c-366 4 -883 7 -1150 7 -431 1 -495 -1 -570 -17z
m1605 -150 c649 -7 725 -9 775 -25 279 -90 498 -373 578 -747 21 -98 48 -297
41 -302 -2 -2 -213 4 -469 14 -956 36 -1265 40 -1815 24 -543 -16 -778 -26
-1129 -51 -120 -8 -221 -13 -224 -9 -10 9 45 305 73 395 96 307 261 528 476
640 128 66 145 68 584 68 215 0 714 -3 1110 -7z m1625 -1082 c0 -6 -4 -7 -10
-4 -5 3 -10 11 -10 16 0 6 5 7 10 4 6 -3 10 -11 10 -16z m-4055 -759 c198 -28
374 -55 391 -61 38 -12 90 -65 103 -104 19 -56 43 -207 37 -231 -4 -13 -17
-31 -31 -40 -22 -14 -64 -14 -496 1 -259 9 -480 20 -490 25 -45 24 -49 45 -49
238 l0 183 26 26 c31 31 4 33 509 -37z m4550 35 c25 -24 25 -26 25 -214 l0
-189 -29 -25 c-33 -28 -29 -27 -654 -48 -415 -14 -404 -18 -372 157 9 49 21
103 26 121 14 44 79 100 126 109 82 16 780 112 816 113 28 1 44 -6 62 -24z"/>
<path d="M6231 5322 c-368 -2 -417 -4 -433 -19 -23 -21 -23 -55 0 -76 17 -15
63 -17 455 -17 l437 0 0 54 c0 48 -2 54 -22 57 -13 2 -209 3 -437 1z"/>
<path d="M6725 5321 c-3 -2 -5 -28 -5 -58 l0 -53 40 0 40 0 0 54 0 54 -35 4
c-20 2 -38 2 -40 -1z"/>
<path d="M6840 5265 l0 -55 453 0 c339 0 456 3 465 12 16 16 16 70 0 86 -9 9
-126 12 -465 12 l-453 0 0 -55z"/>
<path d="M5977 5154 c-65 -15 -206 -85 -231 -113 -16 -17 -15 -22 15 -67 18
-27 34 -50 35 -52 1 -2 29 18 61 44 32 26 83 59 113 73 l55 26 632 3 c747 3
855 -2 939 -43 162 -79 283 -282 318 -532 l13 -96 -206 7 c-592 20 -796 26
-899 26 l-113 0 18 -32 c13 -24 18 -56 18 -113 0 -86 -19 -138 -67 -182 -36
-33 -108 -63 -157 -63 l-43 0 76 -71 c132 -124 222 -288 249 -455 l12 -74 332
0 333 0 0 155 0 155 70 0 70 0 0 -215 0 -215 -400 0 -400 0 0 -175 0 -175 575
0 575 0 0 -118 c0 -146 18 -194 90 -229 39 -20 60 -23 169 -23 146 0 195 16
233 78 20 32 23 53 27 165 3 125 3 127 27 133 13 3 35 20 49 36 l26 31 -3 496
-3 496 -36 75 c-20 41 -54 95 -75 119 -44 50 -141 116 -184 126 -57 13 -29 20
74 20 114 0 148 11 172 57 29 57 8 134 -45 158 -35 16 -378 32 -402 19 -27
-14 -39 -42 -40 -96 -1 -40 -4 -30 -20 57 -10 58 -21 115 -24 128 -5 19 -1 22
23 22 20 0 33 -7 42 -25 21 -40 77 -69 130 -69 83 0 144 65 142 153 -1 104
-116 171 -212 123 -40 -20 -80 -74 -80 -108 0 -20 -5 -24 -30 -24 -27 0 -33 6
-60 63 -68 142 -193 254 -344 305 l-81 27 -750 2 c-623 1 -760 -1 -808 -13z
m2409 -1208 c17 -13 19 -27 19 -135 0 -97 -3 -123 -16 -136 -13 -14 -64 -18
-313 -27 -163 -5 -307 -7 -320 -4 -33 8 -38 29 -25 99 14 80 33 115 72 132 18
8 145 30 282 49 301 41 277 39 301 22z"/>
<path d="M7524 3685 c-9 -23 3 -45 25 -45 26 0 45 32 29 48 -17 17 -48 15 -54
-3z"/>
<path d="M7533 3613 c-17 -6 -16 -38 1 -52 22 -18 48 -2 44 28 -3 25 -20 35
-45 24z"/>
<path d="M7524 3516 c-10 -26 4 -48 28 -44 17 2 23 10 23 28 0 18 -6 26 -23
28 -13 2 -25 -3 -28 -12z"/>
<path d="M6820 3375 l0 -25 363 0 c199 0 368 4 376 9 8 5 11 16 8 25 -6 14
-46 16 -377 16 l-370 0 0 -25z"/>
</g>
</svg>
