<?xml version="1.0" standalone="no"?>
<!DOCTYPE svg PUBLIC "-//W3C//DTD SVG 20010904//EN"
 "http://www.w3.org/TR/2001/REC-SVG-20010904/DTD/svg10.dtd">
<svg version="1.0" xmlns="http://www.w3.org/2000/svg"
 width="872.000000pt" height="689.000000pt" viewBox="0 0 872.000000 689.000000"
 preserveAspectRatio="xMidYMid meet">

<g transform="translate(0.000000,689.000000) scale(0.100000,-0.100000)"
fill="#000000" stroke="none">
<path d="M4300 5824 c-14 -3 -60 -11 -104 -20 -561 -108 -1012 -537 -1151
-1093 -105 -420 -18 -875 235 -1221 118 -163 1025 -1474 1023 -1480 -1 -3 -33
-8 -70 -13 -291 -33 -557 -170 -617 -319 -7 -18 -16 -59 -20 -91 -3 -31 -21
-101 -38 -155 -42 -129 -43 -195 -5 -246 97 -127 347 -176 902 -176 561 0 811
50 909 183 28 38 27 121 -3 214 -13 40 -25 73 -26 73 -1 0 -28 -15 -59 -34
-67 -40 -188 -80 -311 -102 -138 -25 -486 -30 -660 -10 -219 25 -228 37 -25
31 200 -6 488 8 623 29 236 38 407 129 407 217 0 141 -203 292 -483 359 -97
23 -131 25 -146 6 -9 -11 3 -19 66 -41 102 -37 173 -103 173 -159 0 -52 -23
-90 -76 -127 -186 -128 -592 -128 -778 0 -53 37 -76 75 -76 127 0 32 8 45 49
85 52 50 120 81 226 104 43 9 64 9 74 2 11 -9 9 -13 -10 -20 -79 -30 -103 -44
-125 -70 -30 -36 -30 -48 1 -86 80 -94 379 -104 484 -15 53 44 39 103 -34 142
-18 10 -28 2 -88 -61 -38 -40 -60 -58 -49 -42 38 60 1017 1472 1081 1560 209
288 285 448 338 710 26 134 24 424 -5 558 -118 541 -495 960 -1007 1120 -156
49 -221 59 -415 62 -102 2 -196 1 -210 -1z m284 -324 c270 -26 525 -146 712
-335 168 -170 280 -387 320 -622 24 -138 15 -343 -20 -476 -98 -377 -383 -683
-754 -807 -478 -160 -1011 16 -1305 431 -67 94 -143 260 -173 376 -36 136 -44
341 -19 480 43 238 152 450 319 617 211 211 479 327 801 344 11 1 65 -3 119
-8z"/>
<path d="M3945 4871 c-22 -13 -50 -57 -104 -162 -41 -79 -78 -149 -83 -156 -7
-9 -22 -3 -57 23 -47 33 -52 34 -140 34 -50 0 -91 -4 -91 -9 0 -17 78 -79 107
-85 16 -4 42 -2 58 4 23 9 32 8 44 -5 14 -13 14 -18 -2 -44 -14 -25 -17 -57
-17 -209 0 -167 1 -181 21 -206 11 -14 34 -33 50 -41 28 -15 29 -18 29 -93 0
-47 5 -83 12 -90 8 -8 46 -12 105 -12 110 0 113 3 113 109 l0 71 490 0 490 0
0 -71 c0 -106 3 -109 113 -109 59 0 97 4 105 12 7 7 12 43 12 90 0 75 1 78 29
93 16 8 39 27 50 41 20 25 21 39 21 209 0 166 -2 185 -20 207 -19 25 -19 26
-1 42 15 13 24 14 46 6 16 -6 42 -8 58 -4 29 6 107 68 107 85 0 5 -41 9 -91 9
-88 0 -93 -1 -140 -34 -35 -26 -50 -32 -57 -23 -5 7 -42 77 -83 156 -54 105
-82 149 -104 162 -28 18 -61 19 -535 19 -474 0 -507 -1 -535 -19z m1053 -68
c25 -37 142 -262 142 -274 0 -6 -44 -9 -107 -7 l-108 3 -5 93 c-5 87 -7 95
-33 118 -27 23 -35 24 -162 24 -135 0 -135 0 -167 -29 -32 -28 -33 -32 -36
-120 l-4 -91 -38 0 -38 0 -4 91 c-3 88 -4 92 -36 120 -32 29 -32 29 -167 29
-127 0 -135 -1 -162 -24 -26 -23 -28 -31 -33 -118 l-5 -93 -107 -3 c-64 -2
-108 1 -108 7 0 12 117 237 142 274 l19 27 499 0 499 0 19 -27z m-270 -565 c7
-7 12 -39 12 -73 0 -34 -5 -66 -12 -73 -17 -17 -479 -17 -496 0 -16 16 -16
130 0 146 17 17 479 17 496 0z"/>
</g>
</svg>
