<?xml version="1.0" standalone="no"?>
<!DOCTYPE svg PUBLIC "-//W3C//DTD SVG 20010904//EN"
 "http://www.w3.org/TR/2001/REC-SVG-20010904/DTD/svg10.dtd">
<svg version="1.0" xmlns="http://www.w3.org/2000/svg"
 width="990.000000pt" height="990.000000pt" viewBox="0 0 990.000000 990.000000"
 preserveAspectRatio="xMidYMid meet">

<g transform="translate(0.000000,990.000000) scale(0.100000,-0.100000)"
fill="#000000" stroke="none">
<path d="M6569 7978 l-161 -153 6 -55 c3 -30 8 -162 12 -293 4 -131 10 -251
13 -266 6 -27 19 -15 319 278 288 284 312 310 312 341 0 30 -14 49 -133 167
-179 179 -157 181 -368 -19z"/>
<path d="M5866 7290 l-269 -265 7 -225 c3 -124 9 -269 13 -322 l6 -97 270 262
269 262 -7 255 c-4 140 -10 286 -14 325 l-6 70 -269 -265z"/>
<path d="M5078 6517 l-248 -242 11 -300 c6 -165 14 -308 18 -319 6 -15 48 22
253 225 l245 244 -13 313 c-6 173 -14 315 -16 317 -2 2 -114 -105 -250 -238z"/>
<path d="M4303 5761 l-252 -249 9 -258 c6 -143 11 -285 13 -317 1 -31 6 -57
10 -58 4 0 121 111 259 246 l250 246 -11 282 c-6 155 -11 299 -11 320 0 20 -3
37 -7 37 -5 -1 -122 -113 -260 -249z"/>
<path d="M3345 4872 l-440 -382 -382 0 -383 0 0 -328 0 -328 -42 -40 c-24 -23
-128 -114 -233 -204 -104 -90 -198 -171 -208 -180 -18 -17 -13 -24 120 -177
77 -89 154 -178 171 -199 l31 -37 74 66 c41 37 78 67 81 67 3 0 6 -211 6 -470
l0 -470 -177 -2 -178 -3 -3 -207 -2 -208 905 0 905 0 0 210 0 210 -175 0 -175
0 0 958 0 957 286 250 286 250 -8 205 c-3 113 -10 259 -13 324 l-6 119 -440
-381z m-518 -662 c199 -97 239 -358 78 -514 -82 -80 -216 -108 -331 -69 -67
23 -164 120 -187 187 -49 144 8 311 131 383 103 60 202 64 309 13z"/>
<path d="M2610 4062 c-130 -71 -87 -273 61 -289 118 -13 202 108 155 221 -31
73 -142 109 -216 68z"/>
<path d="M5135 5186 c-121 -30 -252 -133 -342 -270 -133 -202 -242 -519 -308
-895 -13 -79 -27 -147 -31 -150 -3 -3 -87 -7 -187 -8 -206 -3 -233 -6 -264
-32 -51 -43 -63 -79 -63 -194 0 -129 13 -166 73 -205 33 -22 54 -28 118 -31
l78 -3 3 -492 c3 -475 4 -492 24 -531 11 -22 39 -53 62 -70 l41 -30 0 -213 c1
-225 7 -258 50 -282 12 -6 98 -10 209 -10 l189 0 24 26 c24 25 24 30 29 247
l5 222 1235 0 c679 0 1243 -2 1252 -4 15 -3 17 -26 20 -221 3 -215 3 -219 27
-244 l24 -26 194 0 c120 0 202 4 215 11 41 22 48 65 48 286 l1 208 39 27 c22
15 50 47 62 70 23 43 23 44 26 536 l3 492 57 0 c79 0 123 14 159 52 44 46 53
76 53 183 0 101 -9 137 -43 173 -46 50 -65 53 -278 53 -197 0 -199 0 -203 22
-3 12 -17 92 -31 177 -45 258 -134 547 -222 725 -114 228 -285 381 -454 405
-102 15 -1833 11 -1894 -4z m1882 -441 c81 -85 167 -275 228 -507 31 -120 75
-332 75 -365 0 -10 -230 -13 -1220 -13 l-1220 0 0 24 c0 36 37 217 70 342 63
237 144 422 227 514 l45 51 877 -2 876 -1 42 -43z m-1917 -1583 c19 -9 40 -28
47 -42 16 -31 17 -193 2 -223 -28 -55 -35 -57 -292 -57 -259 0 -282 4 -305 55
-18 39 -15 189 4 226 27 52 56 58 294 59 185 0 220 -2 250 -18z m2410 3 c51
-26 60 -50 60 -153 0 -99 -13 -142 -49 -162 -12 -6 -114 -10 -260 -10 l-241 0
-32 29 c-32 29 -33 32 -36 124 -4 110 10 150 61 172 48 21 457 21 497 0z"/>
</g>
</svg>
