<?xml version="1.0" standalone="no"?>
<!DOCTYPE svg PUBLIC "-//W3C//DTD SVG 20010904//EN"
 "http://www.w3.org/TR/2001/REC-SVG-20010904/DTD/svg10.dtd">
<svg version="1.0" xmlns="http://www.w3.org/2000/svg"
 width="1000.000000pt" height="992.000000pt" viewBox="0 0 1000.000000 992.000000"
 preserveAspectRatio="xMidYMid meet">

<g transform="translate(0.000000,992.000000) scale(0.100000,-0.100000)"
fill="#000000" stroke="none">
<path d="M4845 6656 c-73 -23 -129 -58 -193 -120 -149 -142 -258 -356 -352
-686 -22 -79 -40 -144 -40 -147 0 -2 95 -2 211 -1 l212 3 43 133 c54 165 120
301 180 370 l46 52 883 0 883 0 45 -50 c60 -66 129 -209 182 -372 l43 -133
212 -3 c198 -2 211 -1 206 15 -2 10 -16 62 -31 115 -111 419 -279 695 -484
796 l-75 37 -965 2 c-761 1 -974 -1 -1006 -11z"/>
<path d="M2310 5955 c-97 -22 -202 -78 -269 -143 -64 -64 -102 -123 -140 -221
l-26 -66 -3 -932 -3 -933 -174 0 -175 0 0 -205 0 -205 905 0 905 0 0 205 0
205 -177 2 -178 3 -5 940 c-5 1028 -1 948 -64 1072 -32 65 -121 162 -186 203
-114 73 -282 104 -410 75z m238 -432 c131 -81 148 -274 34 -374 -49 -43 -91
-59 -157 -59 -135 0 -234 98 -235 233 0 98 46 172 135 214 69 33 156 28 223
-14z"/>
<path d="M2363 5420 c-40 -24 -53 -48 -53 -100 0 -57 50 -110 104 -110 49 0
92 23 111 60 19 37 19 64 0 104 -30 62 -102 83 -162 46z"/>
<path d="M3140 5285 l0 -215 138 0 137 0 150 161 c83 89 172 186 198 215 l49
54 -336 0 -336 0 0 -215z"/>
<path d="M3915 5328 c-88 -94 -177 -191 -198 -215 l-39 -43 354 0 353 0 150
161 c83 89 172 186 198 215 l49 54 -354 0 -353 0 -160 -172z"/>
<path d="M4885 5328 c-88 -94 -177 -191 -198 -215 l-39 -43 354 0 353 0 150
161 c83 89 172 186 198 215 l49 54 -354 0 -353 0 -160 -172z"/>
<path d="M5855 5328 c-88 -94 -177 -191 -198 -215 l-39 -43 354 0 353 0 154
166 c85 91 174 187 198 215 l45 49 -354 0 -353 0 -160 -172z"/>
<path d="M6825 5328 c-88 -94 -177 -191 -198 -215 l-39 -43 354 0 353 0 150
161 c83 89 172 186 198 215 l49 54 -354 0 -353 0 -160 -172z"/>
<path d="M7758 5288 l-198 -213 258 -3 c276 -3 313 1 353 44 23 24 24 33 27
164 l3 139 -34 38 c-35 38 -36 38 -124 41 l-88 3 -197 -213z"/>
<path d="M3950 4383 c0 -478 0 -488 22 -531 12 -27 38 -57 65 -75 l43 -31 0
-213 c0 -223 6 -262 45 -277 22 -8 388 -8 410 0 38 15 45 54 45 274 l0 210
1254 0 1255 0 3 -224 c3 -204 5 -226 22 -245 18 -20 28 -21 227 -21 l208 0 20
26 c20 25 21 39 21 249 l0 223 34 20 c19 11 47 40 63 63 l28 43 3 498 3 498
-1886 0 -1885 0 0 -487z m912 238 c32 -28 33 -32 36 -118 5 -113 -11 -157 -64
-179 -30 -13 -77 -15 -266 -12 l-230 3 -29 33 c-28 31 -29 35 -29 138 0 103 1
106 29 135 l29 29 246 0 246 0 32 -29z m2410 0 c32 -29 33 -32 36 -124 3 -73
0 -102 -13 -127 -28 -54 -59 -60 -295 -60 -296 0 -310 8 -310 168 0 97 8 125
44 154 19 16 49 18 263 18 l243 0 32 -29z"/>
</g>
</svg>
