<?xml version="1.0" standalone="yes"?>
<svg xmlns="http://www.w3.org/2000/svg" width="561" height="447">
<path style="fill:#ffffff; stroke:none;" d="M0 0L0 123L1 123C4.40636 100.274 29.1635 87.5178 50 86.0895C56.372 85.6527 70.181 88.8369 75.4367 84.9722C79.96 81.6462 81.8365 69.2092 83.6921 64C88.7402 49.829 94.7472 34.2009 105.093 23.0008C117.757 9.29218 133.563 8.70096 151 6.83411C176.93 4.05807 202.903 1 229 1L208 0L161 0L0 0z"/>
<path style="fill:#1b2b4b; stroke:none;" d="M182 357L278 357L263.671 338L255.787 327.028L226 326L151 326C151 338.445 153.474 353.776 144.671 363.96C137.615 372.121 127.913 372 118 372C100.257 372 78.5248 375.733 65.3287 360.91C54.2582 348.475 58 328.352 58 313L58 214C58 201.738 54.3127 182.483 58.6034 171.004C61.2182 164.008 69.9851 162.666 76 160L76 159C66.7769 159 54.6664 161.059 46 157.517C34.6334 152.872 24.8111 136.072 34.3943 125.185C46.3158 111.642 84.2813 116.124 99 122C101.854 102.603 110.305 81.9489 118.001 64C121.069 56.8445 124.569 47.2758 131.04 42.5139C136.031 38.8418 144.073 39.3927 150 38.5764C166.27 36.3355 182.64 35.0371 199 33.9105C254.565 30.084 310.498 29.5269 366 34.8302C379.342 36.1051 392.674 37.2502 406 38.8449C411.68 39.5246 419.13 39.1984 423.985 42.564C431.102 47.4972 434.567 57.3567 437.85 65C445.679 83.2319 449.937 102.553 457 121C469.374 116.883 482.025 118 495 118C500.208 118 506.449 117.12 510.786 120.653C519.995 128.154 517.563 152.376 506.985 157.682C499.863 161.254 487.813 159 480 159L480 160C483.357 161.962 487.842 163.535 489.821 167.105C493.138 173.088 489.517 180.747 492.789 187C510.077 220.034 521.042 253.337 512.116 291C509.664 301.346 506.41 311.419 501.741 321C499.74 325.105 494.104 331.358 494.302 336C494.442 339.259 497.9 341.881 500.001 344C506.013 350.064 512.195 358.36 520 362C528.771 319.482 523 271.365 523 228C523 215.513 521.12 201.357 523.148 189.043C524.236 182.442 535.399 177.036 539.073 171C548.929 154.809 550.755 128.478 543.124 111C531.388 84.1184 503.607 86 479 86C475.599 62.9719 460.884 25.8943 440 13.8796C431.835 9.18228 422.144 8.93967 413 7.84491C396.013 5.81116 379.052 4.08481 362 2.91049C305.047 -1.0116 247.953 -1.08127 191 2.91049C174.645 4.05679 158.274 5.60345 142 7.71835C133.604 8.80945 124.713 8.95309 117 12.8102C98.9111 21.8558 90.6008 44.1418 84.0532 62C81.8359 68.0476 80.1937 79.9802 75.4367 84.3966C70.4862 88.9927 55.4324 85.6486 49 86.0895C29.1384 87.451 8.32425 97.95 1.74923 118C-3.5359 134.117 -0.776269 155.577 9.50309 168.999C13.8104 174.624 24.9278 180.383 26.6821 187.04C29.933 199.377 27 216.228 27 229L27 319C27 340.544 24.5919 362.106 39.0957 379.999C57.1598 402.285 80.6836 403 107 403C135 403 164.531 403.244 177.572 373C179.811 367.806 181.276 362.605 182 357z"/>
<path style="fill:#ffffff; stroke:none;" d="M324 0L324 1C350.661 1 377.531 3.67749 404 6.84491C416.208 8.30576 430.444 8.09018 441 15.1049C461.884 28.9836 473.566 62.5104 479 86C504.365 86 532.15 85.0044 543.546 113C550.599 130.324 548.599 155.336 538.452 171C534.882 176.512 524.208 181.926 523.148 188.104C520.566 203.153 523 220.716 523 236C523 277.861 525.578 320.576 520 362C513.643 357.522 496.286 344.204 494.727 336.424C494.008 332.835 499.159 327.085 500.741 324C505.784 314.163 509.269 303.712 511.87 293C521.251 254.376 510.572 219.978 492.789 186C486.739 174.439 495.099 166.289 480 160L480 159C487.975 159 500.731 161.413 507.957 157.682C517.731 152.635 519.686 127.839 511.606 120.653C507.718 117.195 501.799 118 497 118C484.208 118 468.795 115.496 457 121C451.539 101.755 445.751 82.3996 437.85 64C434.782 56.8581 431.548 47.2408 424.96 42.564C420.175 39.1674 412.632 39.5189 407 38.8449C393.674 37.2502 380.342 36.1051 367 34.8302C310.855 29.4655 254.209 30.0396 198 33.9105C181.64 35.0371 165.27 36.3355 149 38.5764C143.15 39.3821 134.968 38.7976 130.093 42.5139C124.14 47.0526 120.866 56.3175 118.001 63C110.386 80.7608 100.69 102.623 99 122C86.3437 114.776 68.2397 117.995 54 118C47.1472 118.003 40.549 118.657 35.2137 123.529C22.9553 134.725 35.0774 156.225 49 158.671C57.5976 160.182 67.28 159 76 159L76 160C70.5918 161.76 63.0709 163.159 59.6034 168.105C54.3573 175.588 58 195.034 58 204L58 315C58 329.906 54.2836 349.889 65.3287 361.826C78.743 376.324 102.285 372 120 372C128.919 372 138.195 372.117 144.671 364.906C153.752 354.792 151 338.493 151 326L225 326L254.895 327.028L263.004 338L278 357L182 357C180.781 363.284 179.091 369.255 176.191 375C161.846 403.416 133.417 403 106 403C78.4743 403 54.1208 400.615 36.7847 376C23.8959 357.699 27 335.139 27 314C27 272.554 30.63 229.276 26.9414 188.015C26.3856 181.798 19.3229 178.75 15.2863 174.714C8.34271 167.77 3.21759 159.581 1 150L0 150L0 447L538 447C521.407 423.445 495.391 403.391 475 383C469.952 377.952 459.367 362.708 452 362.113C447.155 361.722 440.159 368.437 436 370.691C425.328 376.477 413.894 380.586 402 382.996C348.08 393.924 290.718 365.789 266.784 316C259.067 299.947 254.445 281.837 254.015 264C251.81 172.584 352.675 111.493 433 151.753C447.705 159.124 460.937 169.41 471.561 182C498.948 214.456 508.008 258.379 495.565 299C492.672 308.443 488.34 317.595 483.189 326C481.208 329.233 476.281 334.056 476.331 338C476.422 345.098 492.197 356.197 497 361C517.391 381.391 537.445 407.407 561 424L561 0L324 0z"/>
<path style="fill:#1b2b4b; stroke:none;" d="M375 138.439C342.315 141.93 312.933 150.615 289.17 175.09C235.522 230.343 245.773 324.749 311 366.305C339.667 384.568 376.102 389.852 409 381.625C419.87 378.907 430.327 374.648 440 368.988C443.315 367.049 448.908 361.708 453 363.113C459.86 365.469 466.936 375.936 472 381L517 426C521.139 430.139 533.702 447.224 540 445.654C544.674 444.489 560.901 429.002 559.654 424C558.001 417.368 546.735 409.735 542 405L495 358C490.521 353.521 477.814 344.806 476.755 338.424C475.976 333.724 485.493 323.385 487.741 319C494.886 305.064 499.34 289.592 500.83 274C507.389 205.361 448.417 130.598 375 138.439z"/>
<path style="fill:#ffffff; stroke:none;" d="M367 170.428C351.821 172.602 337.611 177.562 325 186.439C261.29 231.289 280.467 332.583 356 351.373C366.239 353.921 377.494 355.076 388 353.572C403.763 351.315 419.11 346.097 432 336.522C493.713 290.677 474.824 191.774 400 172.63C389.512 169.946 377.765 168.887 367 170.428z"/>
<path style="fill:#1b2b4b; stroke:none;" d="M249 312L241.436 288.028L214 287L140 287L140 242L242 242L248 217L157 217C147.08 217 129.688 213.681 121.015 219.009C113.457 223.654 115 232.354 115 240L115 290C115 298.052 114.657 306.312 123.004 310.543C132.369 315.29 149.643 312 160 312L249 312M303 242L400 242L400 287L304 287C305.017 293.787 310.704 308.325 317.379 311.397C323.357 314.147 334.469 312 341 312L396 312C403.207 312 414.817 314.21 420.786 309.347C426.877 304.385 426 294.989 426 288C426 268.825 427.32 249.12 425.91 230C424.592 212.136 402.821 217 390 217L336 217C330.015 217 319.499 214.992 314.185 218.028C307.64 221.767 303.617 234.978 303 242M335 326C342.441 337.593 366.508 340.055 379 339.999C382.74 339.983 391.372 340.48 393.972 337.258C396.046 334.688 395 329.1 395 326L335 326M407 396L407 398L471 400C468.359 394.336 456.812 379.783 450 379.736C445.321 379.704 439.16 384.729 435 386.742C426.342 390.93 416.565 394.711 407 396z"/>
<path style="fill:#ffffff; stroke:none;" d="M560 426L540 447L561 447L560 426z"/>
</svg>
