<?xml version="1.0" standalone="no"?>
<!DOCTYPE svg PUBLIC "-//W3C//DTD SVG 20010904//EN"
 "http://www.w3.org/TR/2001/REC-SVG-20010904/DTD/svg10.dtd">
<svg version="1.0" xmlns="http://www.w3.org/2000/svg"
 width="990.000000pt" height="983.000000pt" viewBox="0 0 990.000000 983.000000"
 preserveAspectRatio="xMidYMid meet">

<g transform="translate(0.000000,983.000000) scale(0.100000,-0.100000)"
fill="#000000" stroke="none">
<path d="M4705 7659 c-179 -16 -539 -86 -555 -108 -3 -4 -49 -22 -104 -40 -54
-18 -130 -46 -168 -62 -39 -16 -77 -29 -85 -29 -16 0 -240 -112 -268 -134 -17
-14 -235 -157 -319 -210 -30 -19 -73 -58 -261 -236 -107 -102 -280 -298 -320
-364 -11 -18 -35 -53 -53 -77 -35 -46 -137 -208 -137 -218 0 -3 -21 -44 -47
-91 -73 -134 -170 -366 -193 -460 -2 -8 -17 -64 -34 -125 -99 -347 -125 -784
-71 -1170 23 -158 95 -463 128 -536 11 -24 23 -55 27 -69 25 -90 172 -394 248
-513 20 -31 37 -59 37 -62 0 -2 42 -60 93 -127 50 -68 99 -134 108 -148 28
-43 358 -369 402 -398 54 -34 184 -131 213 -157 28 -26 215 -137 274 -163 173
-77 216 -97 220 -104 8 -11 184 -74 316 -113 475 -141 1033 -150 1519 -25 155
40 389 121 405 140 4 6 54 29 220 102 59 26 246 137 274 163 29 26 159 123
213 157 40 26 403 386 403 399 0 4 19 31 43 61 44 54 134 176 152 206 122 201
249 452 281 552 9 30 26 75 36 99 33 74 106 379 128 536 54 386 28 823 -71
1170 -17 61 -32 117 -34 125 -23 94 -120 326 -193 460 -26 47 -47 88 -47 91 0
10 -102 172 -137 218 -18 24 -42 59 -53 77 -40 66 -213 262 -320 364 -188 178
-231 217 -261 236 -84 53 -302 196 -319 210 -28 22 -252 134 -268 134 -8 0
-46 13 -85 29 -38 16 -114 44 -168 62 -55 18 -101 36 -104 40 -8 11 -196 56
-330 78 -239 39 -499 50 -735 30z m575 -91 c52 -6 97 -14 100 -18 3 -3 39 -12
80 -19 113 -18 273 -59 495 -128 61 -19 267 -110 274 -121 3 -5 56 -37 116
-72 61 -34 129 -76 152 -91 23 -16 45 -29 50 -29 11 0 102 -65 117 -84 6 -8
38 -36 72 -63 100 -79 234 -201 259 -235 6 -7 39 -45 74 -83 35 -39 84 -99
109 -135 26 -36 53 -71 60 -79 24 -24 110 -157 147 -225 19 -36 49 -87 65
-112 16 -25 50 -96 75 -158 26 -61 55 -129 65 -151 18 -41 62 -181 99 -315 59
-217 97 -574 86 -810 -25 -506 -170 -981 -426 -1389 -33 -51 -59 -95 -59 -97
0 -2 -39 -54 -87 -115 -49 -61 -102 -130 -119 -153 -58 -76 -424 -416 -449
-416 -9 0 -189 -122 -200 -136 -25 -29 -315 -178 -380 -195 -49 -12 -210 -72
-215 -80 -8 -11 -201 -65 -315 -88 -370 -75 -760 -75 -1130 0 -114 23 -307 77
-315 88 -5 8 -166 68 -215 80 -65 17 -342 160 -377 194 -16 17 -195 137 -203
137 -24 0 -390 340 -449 416 -17 23 -70 92 -118 153 -49 61 -88 113 -88 115 0
2 -26 46 -59 97 -256 409 -401 882 -426 1389 -11 236 27 593 86 810 37 134 81
274 99 315 10 22 39 90 65 151 25 62 59 133 75 158 16 25 46 76 65 112 37 68
123 201 147 225 7 8 34 43 60 79 25 36 74 96 109 135 35 38 69 76 74 83 25 34
159 156 259 235 34 27 66 55 72 63 15 19 106 84 117 84 5 0 27 13 50 29 23 15
92 57 152 91 61 35 113 67 116 72 7 11 213 102 274 121 222 69 426 121 519
132 31 4 56 11 56 15 0 7 135 23 275 34 79 6 360 -4 465 -16z"/>
<path d="M3650 6678 c-18 -13 -43 -36 -54 -51 -21 -28 -21 -35 -24 -789 l-2
-761 24 -42 c29 -49 76 -75 135 -75 l41 0 0 -909 0 -908 -70 -5 c-121 -9 -130
-29 -130 -283 0 -166 2 -190 20 -225 42 -82 -85 -75 1370 -75 1455 0 1328 -7
1370 75 18 35 20 59 20 225 0 254 -9 274 -130 283 l-70 5 0 908 0 909 41 0
c59 0 106 26 135 75 l24 42 -2 761 c-3 754 -3 761 -24 789 -11 15 -36 38 -54
51 l-33 22 -1277 0 -1277 0 -33 -22z m2574 -69 c13 -7 30 -23 36 -38 7 -18 10
-246 8 -760 l-3 -733 -24 -19 c-23 -18 -58 -19 -1281 -19 -1223 0 -1258 1
-1281 19 l-24 19 -3 733 c-2 515 1 742 8 760 6 15 21 31 33 37 32 16 2497 16
2531 1z m-156 -2561 l2 -908 -225 0 c-178 0 -225 3 -225 13 0 7 18 31 41 52
80 79 165 228 208 369 93 301 10 674 -198 900 -138 149 -249 222 -428 282 -73
25 -90 26 -273 27 -156 0 -208 -3 -260 -17 -128 -35 -297 -127 -380 -208 -152
-149 -210 -241 -276 -435 -50 -150 -53 -357 -9 -527 35 -135 129 -306 214
-391 22 -22 40 -46 41 -52 0 -10 -51 -13 -225 -13 l-225 0 0 903 c0 497 3 907
7 910 3 4 502 6 1107 5 l1101 -3 3 -907z m-903 642 c139 -32 253 -93 360 -190
125 -114 158 -158 220 -299 53 -119 62 -151 73 -266 17 -175 -15 -342 -94
-493 -52 -99 -91 -150 -181 -239 l-63 -63 -519 0 -520 0 -64 63 c-91 87 -138
152 -190 259 -75 154 -101 302 -85 478 20 206 133 429 272 539 31 24 56 48 56
52 0 18 167 109 255 138 162 54 313 60 480 21z m1085 -1640 c18 -18 20 -33 20
-192 0 -145 -3 -174 -17 -190 -15 -17 -69 -18 -1291 -18 -1173 0 -1277 1
-1294 17 -16 14 -18 34 -18 190 0 160 2 175 20 193 20 20 33 20 1290 20 1257
0 1270 0 1290 -20z"/>
<path d="M4215 6478 c-11 -6 -38 -29 -60 -49 l-40 -38 0 -354 0 -353 27 -42
c55 -82 2 -77 818 -77 816 0 763 -5 818 77 l27 42 0 353 0 354 -40 38 c-22 21
-50 43 -62 49 -31 17 -1459 16 -1488 0z m1486 -97 l29 -29 0 -315 0 -315 -26
-31 -26 -31 -718 0 -718 0 -26 31 -26 31 0 315 0 315 29 29 29 29 712 0 712 0
29 -29z"/>
<path d="M4158 5444 c-36 -19 -48 -43 -48 -94 0 -34 6 -48 34 -76 l34 -34 222
0 222 0 34 34 c28 28 34 42 34 76 0 101 -24 110 -292 110 -168 -1 -219 -4
-240 -16z m443 -70 c9 -11 10 -20 2 -32 -9 -15 -34 -17 -203 -17 -167 0 -194
2 -203 16 -6 9 -7 24 -4 33 6 14 30 16 200 16 165 0 197 -2 208 -16z"/>
<path d="M5278 5444 c-36 -19 -48 -43 -48 -94 0 -34 6 -48 34 -76 l34 -34 222
0 222 0 34 34 c28 28 34 42 34 76 0 101 -24 110 -292 110 -168 -1 -219 -4
-240 -16z m449 -70 c3 -9 2 -24 -4 -33 -9 -14 -36 -16 -203 -16 -169 0 -194 2
-203 17 -8 12 -7 21 2 32 11 14 43 16 208 16 170 0 194 -2 200 -16z"/>
<path d="M4582 4338 c-17 -17 -17 -1029 0 -1046 8 -8 54 -12 143 -12 89 0 135
4 143 12 8 8 12 52 12 134 l0 122 148 4 c164 6 227 22 315 81 57 37 131 144
148 212 17 66 7 200 -19 258 -28 62 -124 162 -186 194 -86 44 -159 53 -436 53
-186 0 -259 -3 -268 -12z m508 -77 c0 -4 24 -11 52 -14 71 -9 168 -58 212
-108 90 -103 87 -273 -6 -386 -78 -94 -172 -123 -393 -123 -89 0 -135 -4 -143
-12 -8 -8 -12 -53 -12 -135 l0 -123 -75 0 -75 0 0 439 c0 242 3 446 6 455 5
14 34 16 220 16 118 0 214 -4 214 -9z"/>
<path d="M4814 4147 c-11 -6 -14 -44 -14 -197 0 -183 1 -190 21 -201 15 -7 67
-10 153 -7 122 3 136 6 191 33 78 40 98 68 103 151 8 114 -26 174 -118 208
-49 18 -309 28 -336 13z m300 -81 c50 -21 76 -60 76 -115 0 -59 -28 -106 -72
-120 -36 -11 -204 -22 -225 -14 -10 4 -13 38 -13 134 l0 129 100 0 c63 0 113
-5 134 -14z"/>
</g>
</svg>
